<svg width="16" height="16" viewBox="0 0 16 16" fill="none" xmlns="http://www.w3.org/2000/svg">
<g clip-path="url(#clip0_559_24)">
<path d="M0 8C0 12.4183 3.58172 16 8 16C12.4183 16 16 12.4183 16 8C16 3.58172 12.4183 0 8 0C3.58172 0 0 3.58172 0 8Z" fill="white"/>
<path d="M6.13584 6.02996L3.41923 10.2585C3.01591 10.8863 3.45168 11.7141 4.19754 11.737L9.92982 11.9126C10.2669 11.9229 10.5846 11.7556 10.7669 11.4719L13.4835 7.24337C13.8868 6.61556 13.4511 5.78778 12.7052 5.76494L6.97293 5.58932C6.63587 5.57898 6.31811 5.74628 6.13584 6.02996Z" stroke="#6F78F0"/>
<path d="M5.233 4.09176L2.51641 8.3203C2.11308 8.94811 2.54884 9.77589 3.2947 9.79874L9.02699 9.97435C9.36404 9.98469 9.6818 9.81739 9.86407 9.53368L12.5807 5.30514C12.984 4.67733 12.5482 3.84955 11.8024 3.8267L6.07009 3.65109C5.73303 3.64075 5.41527 3.80805 5.233 4.09176Z" fill="#6F78F0"/>
</g>
<defs>
<clipPath id="clip0_559_24">
<rect width="16" height="16" fill="white"/>
</clipPath>
</defs>
</svg>
