<svg width="90" height="90" viewBox="0 0 90 90" fill="none" xmlns="http://www.w3.org/2000/svg">
<rect width="90" height="90" rx="45" fill="#D9D9D9"/>
<g filter="url(#filter0_d_610_1225)">
<rect x="64.6592" y="41.0276" width="28.4671" height="28.9754" rx="14.2335" transform="rotate(133.54 64.6592 41.0276)" fill="#1E1E1E"/>
</g>
<g filter="url(#filter1_d_610_1225)">
<rect x="64.8818" y="35.6288" width="28.4671" height="28.9754" rx="14.2335" transform="rotate(133.54 64.8818 35.6288)" fill="#D5486A"/>
</g>
<g filter="url(#filter2_d_610_1225)">
<rect x="65.1045" y="30.23" width="28.4671" height="28.9754" rx="14.2335" transform="rotate(133.54 65.1045 30.23)" fill="#F37357"/>
</g>
<g filter="url(#filter3_d_610_1225)">
<rect x="64.9561" y="24.48" width="28.4671" height="28.9754" rx="14.2335" transform="rotate(133.54 64.9561 24.48)" fill="#6F78F0"/>
</g>
<path d="M28.5625 73V64.2727H32.3295C32.9773 64.2727 33.544 64.4006 34.0298 64.6562C34.5156 64.9119 34.8935 65.2713 35.1634 65.7344C35.4332 66.1974 35.5682 66.7386 35.5682 67.358C35.5682 67.983 35.429 68.5241 35.1506 68.9815C34.875 69.4389 34.4872 69.7912 33.9872 70.0384C33.4901 70.2855 32.9091 70.4091 32.2443 70.4091H29.9943V68.5682H31.767C32.0455 68.5682 32.2827 68.5199 32.4787 68.4233C32.6776 68.3239 32.8295 68.1832 32.9347 68.0014C33.0426 67.8196 33.0966 67.6051 33.0966 67.358C33.0966 67.108 33.0426 66.8949 32.9347 66.7188C32.8295 66.5398 32.6776 66.4034 32.4787 66.3097C32.2827 66.2131 32.0455 66.1648 31.767 66.1648H30.9318V73H28.5625ZM38.0025 73.1023C37.5849 73.1023 37.2156 73.0341 36.8945 72.8977C36.5763 72.7585 36.3263 72.5483 36.1445 72.267C35.9627 71.9858 35.8718 71.6278 35.8718 71.1932C35.8718 70.8352 35.9329 70.5298 36.055 70.277C36.1772 70.0213 36.3477 69.8125 36.5664 69.6506C36.7852 69.4886 37.0394 69.3651 37.3292 69.2798C37.6218 69.1946 37.9371 69.1392 38.2752 69.1136C38.6417 69.0852 38.9357 69.0511 39.1573 69.0114C39.3817 68.9687 39.5437 68.9105 39.6431 68.8366C39.7425 68.7599 39.7923 68.6591 39.7923 68.5341V68.517C39.7923 68.3466 39.7269 68.2159 39.5962 68.125C39.4656 68.0341 39.2979 67.9886 39.0934 67.9886C38.869 67.9886 38.6857 68.0384 38.5437 68.1378C38.4045 68.2344 38.3207 68.3835 38.2923 68.5852H36.1275C36.1559 68.1875 36.2823 67.821 36.5067 67.4858C36.734 67.1477 37.065 66.8778 37.4996 66.6761C37.9343 66.4716 38.4769 66.3693 39.1275 66.3693C39.5962 66.3693 40.0167 66.4247 40.3888 66.5355C40.761 66.6435 41.0778 66.7955 41.3391 66.9915C41.6005 67.1847 41.7994 67.4119 41.9357 67.6733C42.0749 67.9318 42.1445 68.2131 42.1445 68.517V73H39.9457V72.0795H39.8945C39.7638 72.3239 39.6048 72.5213 39.4173 72.6719C39.2326 72.8224 39.021 72.9318 38.7823 73C38.5465 73.0682 38.2866 73.1023 38.0025 73.1023ZM38.7695 71.6193C38.9485 71.6193 39.1161 71.5824 39.2724 71.5085C39.4315 71.4347 39.5607 71.3281 39.6602 71.1889C39.7596 71.0497 39.8093 70.8807 39.8093 70.6818V70.1364C39.7468 70.1619 39.68 70.1861 39.609 70.2088C39.5408 70.2315 39.467 70.2528 39.3874 70.2727C39.3107 70.2926 39.2283 70.3111 39.1403 70.3281C39.055 70.3452 38.9656 70.3608 38.8718 70.375C38.69 70.4034 38.5408 70.4503 38.4244 70.5156C38.3107 70.5781 38.2255 70.6562 38.1687 70.75C38.1147 70.8409 38.0877 70.9432 38.0877 71.0568C38.0877 71.2386 38.1516 71.3778 38.2795 71.4744C38.4073 71.571 38.5707 71.6193 38.7695 71.6193ZM43.2685 73V66.4545H45.6207V73H43.2685ZM44.4446 65.7727C44.1264 65.7727 43.8537 65.6676 43.6264 65.4574C43.3991 65.2472 43.2855 64.9943 43.2855 64.6989C43.2855 64.4034 43.3991 64.1506 43.6264 63.9403C43.8537 63.7301 44.1264 63.625 44.4446 63.625C44.7656 63.625 45.0384 63.7301 45.2628 63.9403C45.4901 64.1506 45.6037 64.4034 45.6037 64.6989C45.6037 64.9943 45.4901 65.2472 45.2628 65.4574C45.0384 65.6676 44.7656 65.7727 44.4446 65.7727ZM49.9727 75.5909C49.3164 75.5909 48.7539 75.4972 48.2852 75.3097C47.8192 75.125 47.457 74.8693 47.1985 74.5426C46.9428 74.2188 46.7994 73.8466 46.7681 73.4261H49.0352C49.0579 73.5653 49.1147 73.6776 49.2056 73.7628C49.2965 73.848 49.413 73.9091 49.555 73.946C49.6999 73.9858 49.8619 74.0057 50.0408 74.0057C50.3448 74.0057 50.5962 73.9318 50.7951 73.7841C50.9968 73.6364 51.0977 73.3693 51.0977 72.983V71.875H51.0295C50.9442 72.0966 50.8136 72.2855 50.6374 72.4418C50.4613 72.5952 50.2496 72.7131 50.0025 72.7955C49.7553 72.875 49.484 72.9148 49.1886 72.9148C48.7227 72.9148 48.2937 72.8068 47.9016 72.5909C47.5124 72.375 47.1999 72.0327 46.9641 71.5639C46.7312 71.0952 46.6147 70.483 46.6147 69.7273C46.6147 68.9375 46.7369 68.2955 46.9812 67.8011C47.2283 67.3068 47.5465 66.9446 47.9357 66.7145C48.3278 66.4844 48.7397 66.3693 49.1715 66.3693C49.4954 66.3693 49.7795 66.4261 50.0238 66.5398C50.2681 66.6506 50.4727 66.7997 50.6374 66.9872C50.8022 67.1719 50.9272 67.375 51.0124 67.5966H51.0636V66.4545H53.4158V72.983C53.4158 73.5369 53.2724 74.0071 52.9854 74.3935C52.7013 74.7827 52.3008 75.0795 51.7837 75.2841C51.2667 75.4886 50.663 75.5909 49.9727 75.5909ZM50.0579 71.2443C50.2738 71.2443 50.4585 71.1847 50.6119 71.0653C50.7681 70.9432 50.8874 70.7699 50.9698 70.5455C51.055 70.3182 51.0977 70.0455 51.0977 69.7273C51.0977 69.4034 51.055 69.1264 50.9698 68.8963C50.8874 68.6634 50.7681 68.4858 50.6119 68.3636C50.4585 68.2386 50.2738 68.1761 50.0579 68.1761C49.842 68.1761 49.6573 68.2386 49.5039 68.3636C49.3533 68.4858 49.2369 68.6634 49.1545 68.8963C49.0749 69.1264 49.0352 69.4034 49.0352 69.7273C49.0352 70.0511 49.0749 70.3267 49.1545 70.554C49.2369 70.7784 49.3533 70.9503 49.5039 71.0696C49.6573 71.1861 49.842 71.2443 50.0579 71.2443ZM57.7486 73.1193C57.0497 73.1193 56.4474 72.9858 55.9418 72.7188C55.4389 72.4489 55.0511 72.0625 54.7784 71.5597C54.5085 71.054 54.3736 70.4489 54.3736 69.7443C54.3736 69.0682 54.5099 68.4773 54.7827 67.9716C55.0554 67.4659 55.4403 67.0724 55.9375 66.7912C56.4347 66.5099 57.0213 66.3693 57.6974 66.3693C58.1918 66.3693 58.6392 66.446 59.0398 66.5994C59.4403 66.7528 59.7827 66.9759 60.0668 67.2685C60.3509 67.5582 60.5696 67.9105 60.723 68.3253C60.8764 68.7401 60.9531 69.2074 60.9531 69.7273V70.2727H55.1065V68.9773H58.7884C58.7855 68.7898 58.7372 68.625 58.6435 68.483C58.5526 68.3381 58.429 68.2259 58.2727 68.1463C58.1193 68.0639 57.9446 68.0227 57.7486 68.0227C57.5582 68.0227 57.3835 68.0639 57.2244 68.1463C57.0653 68.2259 56.9375 68.3366 56.8409 68.4787C56.7472 68.6207 56.6974 68.7869 56.6918 68.9773V70.375C56.6918 70.5852 56.7358 70.7727 56.8239 70.9375C56.9119 71.1023 57.0384 71.2315 57.2031 71.3253C57.3679 71.419 57.5668 71.4659 57.7997 71.4659C57.9616 71.4659 58.1094 71.4432 58.2429 71.3977C58.3793 71.3523 58.4957 71.2869 58.5923 71.2017C58.6889 71.1136 58.7599 71.0085 58.8054 70.8864H60.9531C60.8793 71.3409 60.7045 71.7358 60.429 72.071C60.1534 72.4034 59.7884 72.6619 59.3338 72.8466C58.8821 73.0284 58.3537 73.1193 57.7486 73.1193Z" fill="#1B1B1B"/>
<defs>
<filter id="filter0_d_610_1225" x="29.9346" y="26.9569" width="37.5942" height="37.5755" filterUnits="userSpaceOnUse" color-interpolation-filters="sRGB">
<feFlood flood-opacity="0" result="BackgroundImageFix"/>
<feColorMatrix in="SourceAlpha" type="matrix" values="0 0 0 0 0 0 0 0 0 0 0 0 0 0 0 0 0 0 127 0" result="hardAlpha"/>
<feOffset dx="5.2426" dy="5.2426"/>
<feGaussianBlur stdDeviation="1.75781"/>
<feComposite in2="hardAlpha" operator="out"/>
<feColorMatrix type="matrix" values="0 0 0 0 0 0 0 0 0 0 0 0 0 0 0 0 0 0 0.15 0"/>
<feBlend mode="normal" in2="BackgroundImageFix" result="effect1_dropShadow_610_1225"/>
<feBlend mode="normal" in="SourceGraphic" in2="effect1_dropShadow_610_1225" result="shape"/>
</filter>
<filter id="filter1_d_610_1225" x="30.1572" y="21.5581" width="38.2726" height="38.2539" filterUnits="userSpaceOnUse" color-interpolation-filters="sRGB">
<feFlood flood-opacity="0" result="BackgroundImageFix"/>
<feColorMatrix in="SourceAlpha" type="matrix" values="0 0 0 0 0 0 0 0 0 0 0 0 0 0 0 0 0 0 127 0" result="hardAlpha"/>
<feOffset dx="5.2426" dy="5.2426"/>
<feGaussianBlur stdDeviation="2.09704"/>
<feComposite in2="hardAlpha" operator="out"/>
<feColorMatrix type="matrix" values="0 0 0 0 0 0 0 0 0 0 0 0 0 0 0 0 0 0 0.11 0"/>
<feBlend mode="normal" in2="BackgroundImageFix" result="effect1_dropShadow_610_1225"/>
<feBlend mode="normal" in="SourceGraphic" in2="effect1_dropShadow_610_1225" result="shape"/>
</filter>
<filter id="filter2_d_610_1225" x="30.3799" y="16.1593" width="37.5942" height="37.5755" filterUnits="userSpaceOnUse" color-interpolation-filters="sRGB">
<feFlood flood-opacity="0" result="BackgroundImageFix"/>
<feColorMatrix in="SourceAlpha" type="matrix" values="0 0 0 0 0 0 0 0 0 0 0 0 0 0 0 0 0 0 127 0" result="hardAlpha"/>
<feOffset dx="5.2426" dy="5.2426"/>
<feGaussianBlur stdDeviation="1.75781"/>
<feComposite in2="hardAlpha" operator="out"/>
<feColorMatrix type="matrix" values="0 0 0 0 0 0 0 0 0 0 0 0 0 0 0 0 0 0 0.15 0"/>
<feBlend mode="normal" in2="BackgroundImageFix" result="effect1_dropShadow_610_1225"/>
<feBlend mode="normal" in="SourceGraphic" in2="effect1_dropShadow_610_1225" result="shape"/>
</filter>
<filter id="filter3_d_610_1225" x="30.2314" y="10.4093" width="37.5942" height="37.5755" filterUnits="userSpaceOnUse" color-interpolation-filters="sRGB">
<feFlood flood-opacity="0" result="BackgroundImageFix"/>
<feColorMatrix in="SourceAlpha" type="matrix" values="0 0 0 0 0 0 0 0 0 0 0 0 0 0 0 0 0 0 127 0" result="hardAlpha"/>
<feOffset dx="5.2426" dy="5.2426"/>
<feGaussianBlur stdDeviation="1.75781"/>
<feComposite in2="hardAlpha" operator="out"/>
<feColorMatrix type="matrix" values="0 0 0 0 0 0 0 0 0 0 0 0 0 0 0 0 0 0 0.15 0"/>
<feBlend mode="normal" in2="BackgroundImageFix" result="effect1_dropShadow_610_1225"/>
<feBlend mode="normal" in="SourceGraphic" in2="effect1_dropShadow_610_1225" result="shape"/>
</filter>
</defs>
</svg>
